<mxfile host="app.diagrams.net" modified="2021-10-29T14:32:25.129Z" agent="5.0 (Windows NT 10.0; Win64; x64) AppleWebKit/537.36 (KHTML, like Gecko) Chrome/95.0.4638.54 Safari/537.36" etag="YOb0ZVsSmwm72HLk98e4" version="15.6.2" type="github">
  <diagram id="9npMrwIZEvCTG21rL2dB" name="Page-1">
    <mxGraphModel dx="1247" dy="2170" grid="1" gridSize="10" guides="1" tooltips="1" connect="1" arrows="1" fold="1" page="1" pageScale="1" pageWidth="1169" pageHeight="827" math="0" shadow="0">
      <root>
        <mxCell id="0" />
        <mxCell id="1" parent="0" />
        <mxCell id="jthS4XlL0CTIznY_nn8V-1" value="&lt;font face=&quot;Raleway&quot;&gt;&lt;b&gt;NE - 1&lt;/b&gt;&lt;/font&gt;" style="rounded=0;whiteSpace=wrap;html=1;" parent="1" vertex="1">
          <mxGeometry x="285" y="70" width="60" height="20" as="geometry" />
        </mxCell>
        <mxCell id="jthS4XlL0CTIznY_nn8V-20" value="RE - 3" style="rounded=0;whiteSpace=wrap;html=1;" parent="1" vertex="1">
          <mxGeometry x="345" y="70" width="60" height="20" as="geometry" />
        </mxCell>
        <mxCell id="jthS4XlL0CTIznY_nn8V-21" value="WO - 2" style="rounded=0;whiteSpace=wrap;html=1;" parent="1" vertex="1">
          <mxGeometry x="405" y="70" width="60" height="20" as="geometry" />
        </mxCell>
        <mxCell id="jthS4XlL0CTIznY_nn8V-22" value="FO - 4" style="rounded=0;whiteSpace=wrap;html=1;" parent="1" vertex="1">
          <mxGeometry x="465" y="70" width="60" height="20" as="geometry" />
        </mxCell>
        <mxCell id="jthS4XlL0CTIznY_nn8V-23" value="TO - 2" style="rounded=0;whiteSpace=wrap;html=1;" parent="1" vertex="1">
          <mxGeometry x="525" y="70" width="60" height="20" as="geometry" />
        </mxCell>
        <mxCell id="jthS4XlL0CTIznY_nn8V-24" value="TE - 3" style="rounded=0;whiteSpace=wrap;html=1;" parent="1" vertex="1">
          <mxGeometry x="585" y="70" width="60" height="20" as="geometry" />
        </mxCell>
        <mxCell id="jthS4XlL0CTIznY_nn8V-25" value="NO - 1" style="rounded=0;whiteSpace=wrap;html=1;" parent="1" vertex="1">
          <mxGeometry x="645" y="70" width="60" height="20" as="geometry" />
        </mxCell>
        <mxCell id="jthS4XlL0CTIznY_nn8V-26" value="RO - 0" style="rounded=0;whiteSpace=wrap;html=1;" parent="1" vertex="1">
          <mxGeometry x="705" y="70" width="60" height="20" as="geometry" />
        </mxCell>
        <mxCell id="jthS4XlL0CTIznY_nn8V-27" value="RU - 4" style="rounded=0;whiteSpace=wrap;html=1;" parent="1" vertex="1">
          <mxGeometry x="765" y="70" width="60" height="20" as="geometry" />
        </mxCell>
        <mxCell id="jthS4XlL0CTIznY_nn8V-28" value="ZE - 0" style="rounded=0;whiteSpace=wrap;html=1;" parent="1" vertex="1">
          <mxGeometry x="825" y="70" width="60" height="20" as="geometry" />
        </mxCell>
        <mxCell id="jthS4XlL0CTIznY_nn8V-32" value="&lt;b style=&quot;font-family: &amp;#34;raleway&amp;#34;&quot;&gt;NE - 1&lt;/b&gt;" style="rounded=0;whiteSpace=wrap;html=1;" parent="1" vertex="1">
          <mxGeometry x="225" y="150" width="60" height="20" as="geometry" />
        </mxCell>
        <mxCell id="jthS4XlL0CTIznY_nn8V-33" value="&lt;span&gt;RE - 3&lt;/span&gt;" style="rounded=0;whiteSpace=wrap;html=1;" parent="1" vertex="1">
          <mxGeometry x="285" y="150" width="60" height="20" as="geometry" />
        </mxCell>
        <mxCell id="jthS4XlL0CTIznY_nn8V-34" value="&lt;span&gt;WO - 2&lt;/span&gt;" style="rounded=0;whiteSpace=wrap;html=1;" parent="1" vertex="1">
          <mxGeometry x="345" y="150" width="60" height="20" as="geometry" />
        </mxCell>
        <mxCell id="jthS4XlL0CTIznY_nn8V-35" value="&lt;span&gt;FO - 4&lt;/span&gt;" style="rounded=0;whiteSpace=wrap;html=1;" parent="1" vertex="1">
          <mxGeometry x="405" y="150" width="60" height="20" as="geometry" />
        </mxCell>
        <mxCell id="jthS4XlL0CTIznY_nn8V-38" value="&lt;span&gt;TO - 2&lt;/span&gt;" style="rounded=0;whiteSpace=wrap;html=1;" parent="1" vertex="1">
          <mxGeometry x="465" y="150" width="60" height="20" as="geometry" />
        </mxCell>
        <mxCell id="jthS4XlL0CTIznY_nn8V-39" value="&lt;span&gt;TE - 3&lt;/span&gt;" style="rounded=0;whiteSpace=wrap;html=1;" parent="1" vertex="1">
          <mxGeometry x="630" y="150" width="60" height="20" as="geometry" />
        </mxCell>
        <mxCell id="jthS4XlL0CTIznY_nn8V-40" value="&lt;span&gt;NO - 1&lt;/span&gt;" style="rounded=0;whiteSpace=wrap;html=1;" parent="1" vertex="1">
          <mxGeometry x="690" y="150" width="60" height="20" as="geometry" />
        </mxCell>
        <mxCell id="jthS4XlL0CTIznY_nn8V-41" value="&lt;span&gt;RO - 0&lt;/span&gt;" style="rounded=0;whiteSpace=wrap;html=1;" parent="1" vertex="1">
          <mxGeometry x="750" y="150" width="60" height="20" as="geometry" />
        </mxCell>
        <mxCell id="jthS4XlL0CTIznY_nn8V-42" value="&lt;span&gt;RU - 4&lt;/span&gt;" style="rounded=0;whiteSpace=wrap;html=1;" parent="1" vertex="1">
          <mxGeometry x="810" y="150" width="60" height="20" as="geometry" />
        </mxCell>
        <mxCell id="jthS4XlL0CTIznY_nn8V-43" value="&lt;span&gt;ZE - 0&lt;/span&gt;" style="rounded=0;whiteSpace=wrap;html=1;" parent="1" vertex="1">
          <mxGeometry x="870" y="150" width="60" height="20" as="geometry" />
        </mxCell>
        <mxCell id="jthS4XlL0CTIznY_nn8V-44" value="&lt;b style=&quot;font-family: &amp;#34;raleway&amp;#34;&quot;&gt;NE - 1&lt;/b&gt;" style="rounded=0;whiteSpace=wrap;html=1;" parent="1" vertex="1">
          <mxGeometry x="117" y="227" width="60" height="20" as="geometry" />
        </mxCell>
        <mxCell id="jthS4XlL0CTIznY_nn8V-45" value="&lt;span&gt;RE - 3&lt;/span&gt;" style="rounded=0;whiteSpace=wrap;html=1;" parent="1" vertex="1">
          <mxGeometry x="177" y="227" width="60" height="20" as="geometry" />
        </mxCell>
        <mxCell id="jthS4XlL0CTIznY_nn8V-46" value="&lt;span&gt;WO - 2&lt;/span&gt;" style="rounded=0;whiteSpace=wrap;html=1;" parent="1" vertex="1">
          <mxGeometry x="357" y="227" width="60" height="20" as="geometry" />
        </mxCell>
        <mxCell id="jthS4XlL0CTIznY_nn8V-47" value="&lt;span&gt;FO - 4&lt;/span&gt;" style="rounded=0;whiteSpace=wrap;html=1;" parent="1" vertex="1">
          <mxGeometry x="417" y="227" width="60" height="20" as="geometry" />
        </mxCell>
        <mxCell id="jthS4XlL0CTIznY_nn8V-48" value="&lt;span&gt;TO - 2&lt;/span&gt;" style="rounded=0;whiteSpace=wrap;html=1;" parent="1" vertex="1">
          <mxGeometry x="477" y="227" width="60" height="20" as="geometry" />
        </mxCell>
        <mxCell id="jthS4XlL0CTIznY_nn8V-49" value="&lt;b style=&quot;font-family: &amp;#34;raleway&amp;#34;&quot;&gt;NE - 1&lt;/b&gt;" style="rounded=0;whiteSpace=wrap;html=1;" parent="1" vertex="1">
          <mxGeometry x="97" y="307" width="60" height="20" as="geometry" />
        </mxCell>
        <mxCell id="jthS4XlL0CTIznY_nn8V-50" value="&lt;span&gt;RE - 3&lt;/span&gt;" style="rounded=0;whiteSpace=wrap;html=1;" parent="1" vertex="1">
          <mxGeometry x="177" y="307" width="60" height="20" as="geometry" />
        </mxCell>
        <mxCell id="jthS4XlL0CTIznY_nn8V-51" value="&lt;span&gt;WO - 2&lt;/span&gt;" style="rounded=0;whiteSpace=wrap;html=1;" parent="1" vertex="1">
          <mxGeometry x="337" y="307" width="60" height="20" as="geometry" />
        </mxCell>
        <mxCell id="jthS4XlL0CTIznY_nn8V-52" value="&lt;span&gt;FO - 4&lt;/span&gt;" style="rounded=0;whiteSpace=wrap;html=1;" parent="1" vertex="1">
          <mxGeometry x="397" y="307" width="60" height="20" as="geometry" />
        </mxCell>
        <mxCell id="jthS4XlL0CTIznY_nn8V-53" value="&lt;span&gt;TO - 2&lt;/span&gt;" style="rounded=0;whiteSpace=wrap;html=1;" parent="1" vertex="1">
          <mxGeometry x="497" y="307" width="60" height="20" as="geometry" />
        </mxCell>
        <mxCell id="jthS4XlL0CTIznY_nn8V-56" value="&lt;b style=&quot;font-family: &amp;#34;raleway&amp;#34;&quot;&gt;NE - 1&lt;/b&gt;" style="rounded=0;whiteSpace=wrap;html=1;" parent="1" vertex="1">
          <mxGeometry x="97" y="397" width="60" height="20" as="geometry" />
        </mxCell>
        <mxCell id="jthS4XlL0CTIznY_nn8V-57" value="&lt;span&gt;RE - 3&lt;/span&gt;" style="rounded=0;whiteSpace=wrap;html=1;" parent="1" vertex="1">
          <mxGeometry x="177" y="397" width="60" height="20" as="geometry" />
        </mxCell>
        <mxCell id="jthS4XlL0CTIznY_nn8V-58" value="&lt;span&gt;WO - 2&lt;/span&gt;" style="rounded=0;whiteSpace=wrap;html=1;" parent="1" vertex="1">
          <mxGeometry x="327" y="397" width="60" height="20" as="geometry" />
        </mxCell>
        <mxCell id="jthS4XlL0CTIznY_nn8V-59" value="&lt;span&gt;FO - 4&lt;/span&gt;" style="rounded=0;whiteSpace=wrap;html=1;" parent="1" vertex="1">
          <mxGeometry x="407" y="397" width="60" height="20" as="geometry" />
        </mxCell>
        <mxCell id="jthS4XlL0CTIznY_nn8V-60" value="&lt;b style=&quot;font-family: &amp;#34;raleway&amp;#34;&quot;&gt;NE - 1&lt;/b&gt;" style="rounded=0;whiteSpace=wrap;html=1;" parent="1" vertex="1">
          <mxGeometry x="117" y="487" width="60" height="20" as="geometry" />
        </mxCell>
        <mxCell id="jthS4XlL0CTIznY_nn8V-61" value="&lt;span&gt;RE - 3&lt;/span&gt;" style="rounded=0;whiteSpace=wrap;html=1;" parent="1" vertex="1">
          <mxGeometry x="177" y="487" width="60" height="20" as="geometry" />
        </mxCell>
        <mxCell id="jthS4XlL0CTIznY_nn8V-62" value="&lt;span&gt;WO - 2&lt;/span&gt;" style="rounded=0;whiteSpace=wrap;html=1;" parent="1" vertex="1">
          <mxGeometry x="337" y="487" width="60" height="20" as="geometry" />
        </mxCell>
        <mxCell id="jthS4XlL0CTIznY_nn8V-63" value="&lt;span&gt;FO - 4&lt;/span&gt;" style="rounded=0;whiteSpace=wrap;html=1;" parent="1" vertex="1">
          <mxGeometry x="397" y="487" width="60" height="20" as="geometry" />
        </mxCell>
        <mxCell id="jthS4XlL0CTIznY_nn8V-64" value="&lt;span&gt;TO - 2&lt;/span&gt;" style="rounded=0;whiteSpace=wrap;html=1;" parent="1" vertex="1">
          <mxGeometry x="497" y="397" width="60" height="20" as="geometry" />
        </mxCell>
        <mxCell id="jthS4XlL0CTIznY_nn8V-65" value="&lt;span&gt;TO - 2&lt;/span&gt;" style="rounded=0;whiteSpace=wrap;html=1;" parent="1" vertex="1">
          <mxGeometry x="497" y="487" width="60" height="20" as="geometry" />
        </mxCell>
        <mxCell id="jthS4XlL0CTIznY_nn8V-66" value="&lt;span&gt;WO - 2&lt;/span&gt;" style="rounded=0;whiteSpace=wrap;html=1;" parent="1" vertex="1">
          <mxGeometry x="357" y="557" width="60" height="20" as="geometry" />
        </mxCell>
        <mxCell id="jthS4XlL0CTIznY_nn8V-67" value="&lt;span&gt;TO - 2&lt;/span&gt;" style="rounded=0;whiteSpace=wrap;html=1;" parent="1" vertex="1">
          <mxGeometry x="417" y="557" width="60" height="20" as="geometry" />
        </mxCell>
        <mxCell id="jthS4XlL0CTIznY_nn8V-68" value="&lt;span&gt;FO - 4&lt;/span&gt;" style="rounded=0;whiteSpace=wrap;html=1;" parent="1" vertex="1">
          <mxGeometry x="477" y="557" width="60" height="20" as="geometry" />
        </mxCell>
        <mxCell id="jthS4XlL0CTIznY_nn8V-69" value="&lt;b style=&quot;font-family: &amp;#34;raleway&amp;#34;&quot;&gt;NE - 1&lt;/b&gt;" style="rounded=0;whiteSpace=wrap;html=1;" parent="1" vertex="1">
          <mxGeometry x="117" y="557" width="60" height="20" as="geometry" />
        </mxCell>
        <mxCell id="jthS4XlL0CTIznY_nn8V-70" value="&lt;span&gt;RE - 3&lt;/span&gt;" style="rounded=0;whiteSpace=wrap;html=1;" parent="1" vertex="1">
          <mxGeometry x="177" y="557" width="60" height="20" as="geometry" />
        </mxCell>
        <mxCell id="jthS4XlL0CTIznY_nn8V-71" value="&lt;b style=&quot;font-family: &amp;#34;raleway&amp;#34;&quot;&gt;NE - 1&lt;/b&gt;" style="rounded=0;whiteSpace=wrap;html=1;" parent="1" vertex="1">
          <mxGeometry x="177" y="647" width="60" height="20" as="geometry" />
        </mxCell>
        <mxCell id="jthS4XlL0CTIznY_nn8V-72" value="&lt;span&gt;WO - 2&lt;/span&gt;" style="rounded=0;whiteSpace=wrap;html=1;" parent="1" vertex="1">
          <mxGeometry x="237" y="647" width="60" height="20" as="geometry" />
        </mxCell>
        <mxCell id="jthS4XlL0CTIznY_nn8V-73" value="&lt;span&gt;TO - 2&lt;/span&gt;" style="rounded=0;whiteSpace=wrap;html=1;" parent="1" vertex="1">
          <mxGeometry x="297" y="647" width="60" height="20" as="geometry" />
        </mxCell>
        <mxCell id="jthS4XlL0CTIznY_nn8V-74" value="&lt;span&gt;RE - 3&lt;/span&gt;" style="rounded=0;whiteSpace=wrap;html=1;" parent="1" vertex="1">
          <mxGeometry x="357" y="647" width="60" height="20" as="geometry" />
        </mxCell>
        <mxCell id="jthS4XlL0CTIznY_nn8V-75" value="&lt;span&gt;FO - 4&lt;/span&gt;" style="rounded=0;whiteSpace=wrap;html=1;" parent="1" vertex="1">
          <mxGeometry x="417" y="647" width="60" height="20" as="geometry" />
        </mxCell>
        <mxCell id="jthS4XlL0CTIznY_nn8V-101" value="&lt;span style=&quot;font-family: &amp;#34;helvetica&amp;#34;&quot;&gt;RO - 0&lt;/span&gt;" style="rounded=0;whiteSpace=wrap;html=1;" parent="1" vertex="1">
          <mxGeometry x="285" y="750" width="60" height="20" as="geometry" />
        </mxCell>
        <mxCell id="jthS4XlL0CTIznY_nn8V-102" value="&lt;span style=&quot;font-family: &amp;#34;helvetica&amp;#34;&quot;&gt;ZE - 0&lt;/span&gt;" style="rounded=0;whiteSpace=wrap;html=1;" parent="1" vertex="1">
          <mxGeometry x="345" y="750" width="60" height="20" as="geometry" />
        </mxCell>
        <mxCell id="jthS4XlL0CTIznY_nn8V-103" value="&lt;b style=&quot;font-family: &amp;#34;raleway&amp;#34;&quot;&gt;NE - 1&lt;/b&gt;" style="rounded=0;whiteSpace=wrap;html=1;" parent="1" vertex="1">
          <mxGeometry x="405" y="750" width="60" height="20" as="geometry" />
        </mxCell>
        <mxCell id="jthS4XlL0CTIznY_nn8V-104" value="&lt;span&gt;NO - 1&lt;/span&gt;" style="rounded=0;whiteSpace=wrap;html=1;" parent="1" vertex="1">
          <mxGeometry x="465" y="750" width="60" height="20" as="geometry" />
        </mxCell>
        <mxCell id="jthS4XlL0CTIznY_nn8V-105" value="&lt;span&gt;WO - 2&lt;/span&gt;" style="rounded=0;whiteSpace=wrap;html=1;" parent="1" vertex="1">
          <mxGeometry x="525" y="750" width="60" height="20" as="geometry" />
        </mxCell>
        <mxCell id="jthS4XlL0CTIznY_nn8V-106" value="&lt;span&gt;TO - 2&lt;/span&gt;" style="rounded=0;whiteSpace=wrap;html=1;" parent="1" vertex="1">
          <mxGeometry x="585" y="750" width="60" height="20" as="geometry" />
        </mxCell>
        <mxCell id="jthS4XlL0CTIznY_nn8V-107" value="&lt;span&gt;TE - 3&lt;/span&gt;" style="rounded=0;whiteSpace=wrap;html=1;" parent="1" vertex="1">
          <mxGeometry x="645" y="750" width="60" height="20" as="geometry" />
        </mxCell>
        <mxCell id="jthS4XlL0CTIznY_nn8V-108" value="&lt;span&gt;RE - 3&lt;/span&gt;" style="rounded=0;whiteSpace=wrap;html=1;" parent="1" vertex="1">
          <mxGeometry x="705" y="750" width="60" height="20" as="geometry" />
        </mxCell>
        <mxCell id="jthS4XlL0CTIznY_nn8V-109" value="&lt;span style=&quot;font-family: &amp;#34;helvetica&amp;#34;&quot;&gt;RU - 4&lt;/span&gt;" style="rounded=0;whiteSpace=wrap;html=1;" parent="1" vertex="1">
          <mxGeometry x="765" y="750" width="60" height="20" as="geometry" />
        </mxCell>
        <mxCell id="jthS4XlL0CTIznY_nn8V-110" value="&lt;span&gt;FO - 4&lt;/span&gt;" style="rounded=0;whiteSpace=wrap;html=1;" parent="1" vertex="1">
          <mxGeometry x="825" y="750" width="60" height="20" as="geometry" />
        </mxCell>
        <mxCell id="jthS4XlL0CTIznY_nn8V-121" value="&lt;span&gt;TE - 3&lt;/span&gt;" style="rounded=0;whiteSpace=wrap;html=1;" parent="1" vertex="1">
          <mxGeometry x="632" y="227" width="60" height="20" as="geometry" />
        </mxCell>
        <mxCell id="jthS4XlL0CTIznY_nn8V-122" value="&lt;span&gt;NO - 1&lt;/span&gt;" style="rounded=0;whiteSpace=wrap;html=1;" parent="1" vertex="1">
          <mxGeometry x="692" y="227" width="60" height="20" as="geometry" />
        </mxCell>
        <mxCell id="jthS4XlL0CTIznY_nn8V-123" value="&lt;span&gt;RO - 0&lt;/span&gt;" style="rounded=0;whiteSpace=wrap;html=1;" parent="1" vertex="1">
          <mxGeometry x="872" y="227" width="60" height="20" as="geometry" />
        </mxCell>
        <mxCell id="jthS4XlL0CTIznY_nn8V-124" value="&lt;span&gt;RU - 4&lt;/span&gt;" style="rounded=0;whiteSpace=wrap;html=1;" parent="1" vertex="1">
          <mxGeometry x="932" y="227" width="60" height="20" as="geometry" />
        </mxCell>
        <mxCell id="jthS4XlL0CTIznY_nn8V-125" value="&#xa;&#xa;&lt;span style=&quot;color: rgb(0, 0, 0); font-family: helvetica; font-size: 12px; font-style: normal; font-weight: 400; letter-spacing: normal; text-align: center; text-indent: 0px; text-transform: none; word-spacing: 0px; background-color: rgb(248, 249, 250); display: inline; float: none;&quot;&gt;ZE - 0&lt;/span&gt;&#xa;&#xa;" style="rounded=0;whiteSpace=wrap;html=1;" parent="1" vertex="1">
          <mxGeometry x="992" y="227" width="60" height="20" as="geometry" />
        </mxCell>
        <mxCell id="jthS4XlL0CTIznY_nn8V-126" value="&lt;span&gt;TE - 3&lt;/span&gt;" style="rounded=0;whiteSpace=wrap;html=1;" parent="1" vertex="1">
          <mxGeometry x="612" y="307" width="60" height="20" as="geometry" />
        </mxCell>
        <mxCell id="jthS4XlL0CTIznY_nn8V-127" value="&lt;span&gt;NO - 1&lt;/span&gt;" style="rounded=0;whiteSpace=wrap;html=1;" parent="1" vertex="1">
          <mxGeometry x="692" y="307" width="60" height="20" as="geometry" />
        </mxCell>
        <mxCell id="jthS4XlL0CTIznY_nn8V-128" value="&lt;span&gt;RO - 0&lt;/span&gt;" style="rounded=0;whiteSpace=wrap;html=1;" parent="1" vertex="1">
          <mxGeometry x="852" y="307" width="60" height="20" as="geometry" />
        </mxCell>
        <mxCell id="jthS4XlL0CTIznY_nn8V-129" value="&lt;span&gt;RU - 4&lt;/span&gt;" style="rounded=0;whiteSpace=wrap;html=1;" parent="1" vertex="1">
          <mxGeometry x="912" y="307" width="60" height="20" as="geometry" />
        </mxCell>
        <mxCell id="jthS4XlL0CTIznY_nn8V-130" value="&#xa;&#xa;&lt;span style=&quot;color: rgb(0, 0, 0); font-family: helvetica; font-size: 12px; font-style: normal; font-weight: 400; letter-spacing: normal; text-align: center; text-indent: 0px; text-transform: none; word-spacing: 0px; background-color: rgb(248, 249, 250); display: inline; float: none;&quot;&gt;ZE - 0&lt;/span&gt;&#xa;&#xa;" style="rounded=0;whiteSpace=wrap;html=1;" parent="1" vertex="1">
          <mxGeometry x="1012" y="307" width="60" height="20" as="geometry" />
        </mxCell>
        <mxCell id="jthS4XlL0CTIznY_nn8V-131" value="&lt;span&gt;TE - 3&lt;/span&gt;" style="rounded=0;whiteSpace=wrap;html=1;" parent="1" vertex="1">
          <mxGeometry x="612" y="397" width="60" height="20" as="geometry" />
        </mxCell>
        <mxCell id="jthS4XlL0CTIznY_nn8V-132" value="&lt;span&gt;NO - 1&lt;/span&gt;" style="rounded=0;whiteSpace=wrap;html=1;" parent="1" vertex="1">
          <mxGeometry x="692" y="397" width="60" height="20" as="geometry" />
        </mxCell>
        <mxCell id="jthS4XlL0CTIznY_nn8V-133" value="&lt;span&gt;RO - 0&lt;/span&gt;" style="rounded=0;whiteSpace=wrap;html=1;" parent="1" vertex="1">
          <mxGeometry x="842" y="397" width="60" height="20" as="geometry" />
        </mxCell>
        <mxCell id="jthS4XlL0CTIznY_nn8V-134" value="&lt;span&gt;RU - 4&lt;/span&gt;" style="rounded=0;whiteSpace=wrap;html=1;" parent="1" vertex="1">
          <mxGeometry x="922" y="397" width="60" height="20" as="geometry" />
        </mxCell>
        <mxCell id="jthS4XlL0CTIznY_nn8V-135" value="&lt;span&gt;NO - 1&lt;/span&gt;" style="rounded=0;whiteSpace=wrap;html=1;" parent="1" vertex="1">
          <mxGeometry x="632" y="487" width="60" height="20" as="geometry" />
        </mxCell>
        <mxCell id="jthS4XlL0CTIznY_nn8V-136" value="&lt;span&gt;TE - 3&lt;/span&gt;" style="rounded=0;whiteSpace=wrap;html=1;" parent="1" vertex="1">
          <mxGeometry x="692" y="487" width="60" height="20" as="geometry" />
        </mxCell>
        <mxCell id="jthS4XlL0CTIznY_nn8V-137" value="&lt;span&gt;RO - 0&lt;/span&gt;" style="rounded=0;whiteSpace=wrap;html=1;" parent="1" vertex="1">
          <mxGeometry x="852" y="487" width="60" height="20" as="geometry" />
        </mxCell>
        <mxCell id="jthS4XlL0CTIznY_nn8V-138" value="&lt;span&gt;RU - 4&lt;/span&gt;" style="rounded=0;whiteSpace=wrap;html=1;" parent="1" vertex="1">
          <mxGeometry x="912" y="487" width="60" height="20" as="geometry" />
        </mxCell>
        <mxCell id="jthS4XlL0CTIznY_nn8V-139" value="&#xa;&#xa;&lt;span style=&quot;color: rgb(0, 0, 0); font-family: helvetica; font-size: 12px; font-style: normal; font-weight: 400; letter-spacing: normal; text-align: center; text-indent: 0px; text-transform: none; word-spacing: 0px; background-color: rgb(248, 249, 250); display: inline; float: none;&quot;&gt;ZE - 0&lt;/span&gt;&#xa;&#xa;" style="rounded=0;whiteSpace=wrap;html=1;" parent="1" vertex="1">
          <mxGeometry x="1012" y="397" width="60" height="20" as="geometry" />
        </mxCell>
        <mxCell id="jthS4XlL0CTIznY_nn8V-140" value="&#xa;&#xa;&lt;span style=&quot;color: rgb(0, 0, 0); font-family: helvetica; font-size: 12px; font-style: normal; font-weight: 400; letter-spacing: normal; text-align: center; text-indent: 0px; text-transform: none; word-spacing: 0px; background-color: rgb(248, 249, 250); display: inline; float: none;&quot;&gt;ZE - 0&lt;/span&gt;&#xa;&#xa;" style="rounded=0;whiteSpace=wrap;html=1;" parent="1" vertex="1">
          <mxGeometry x="1012" y="487" width="60" height="20" as="geometry" />
        </mxCell>
        <mxCell id="jthS4XlL0CTIznY_nn8V-141" value="&#xa;&#xa;&lt;span style=&quot;color: rgb(0, 0, 0); font-family: helvetica; font-size: 12px; font-style: normal; font-weight: 400; letter-spacing: normal; text-align: center; text-indent: 0px; text-transform: none; word-spacing: 0px; background-color: rgb(248, 249, 250); display: inline; float: none;&quot;&gt;RO - 0&lt;/span&gt;&#xa;&#xa;" style="rounded=0;whiteSpace=wrap;html=1;" parent="1" vertex="1">
          <mxGeometry x="872" y="557" width="60" height="20" as="geometry" />
        </mxCell>
        <mxCell id="jthS4XlL0CTIznY_nn8V-142" value="&#xa;&#xa;&lt;span style=&quot;color: rgb(0, 0, 0); font-family: helvetica; font-size: 12px; font-style: normal; font-weight: 400; letter-spacing: normal; text-align: center; text-indent: 0px; text-transform: none; word-spacing: 0px; background-color: rgb(248, 249, 250); display: inline; float: none;&quot;&gt;ZE - 0&lt;/span&gt;&#xa;&#xa;" style="rounded=0;whiteSpace=wrap;html=1;" parent="1" vertex="1">
          <mxGeometry x="932" y="557" width="60" height="20" as="geometry" />
        </mxCell>
        <mxCell id="jthS4XlL0CTIznY_nn8V-143" value="&#xa;&#xa;&lt;span style=&quot;color: rgb(0, 0, 0); font-family: helvetica; font-size: 12px; font-style: normal; font-weight: 400; letter-spacing: normal; text-align: center; text-indent: 0px; text-transform: none; word-spacing: 0px; background-color: rgb(248, 249, 250); display: inline; float: none;&quot;&gt;RU - 4&lt;/span&gt;&#xa;&#xa;" style="rounded=0;whiteSpace=wrap;html=1;" parent="1" vertex="1">
          <mxGeometry x="992" y="557" width="60" height="20" as="geometry" />
        </mxCell>
        <mxCell id="jthS4XlL0CTIznY_nn8V-144" value="&lt;span&gt;NO - 1&lt;/span&gt;" style="rounded=0;whiteSpace=wrap;html=1;" parent="1" vertex="1">
          <mxGeometry x="632" y="557" width="60" height="20" as="geometry" />
        </mxCell>
        <mxCell id="jthS4XlL0CTIznY_nn8V-145" value="&lt;span&gt;TE - 3&lt;/span&gt;" style="rounded=0;whiteSpace=wrap;html=1;" parent="1" vertex="1">
          <mxGeometry x="692" y="557" width="60" height="20" as="geometry" />
        </mxCell>
        <mxCell id="jthS4XlL0CTIznY_nn8V-146" value="&lt;span style=&quot;font-family: &amp;#34;helvetica&amp;#34;&quot;&gt;RO - 0&lt;/span&gt;" style="rounded=0;whiteSpace=wrap;html=1;" parent="1" vertex="1">
          <mxGeometry x="692" y="647" width="60" height="20" as="geometry" />
        </mxCell>
        <mxCell id="jthS4XlL0CTIznY_nn8V-147" value="&lt;span style=&quot;font-family: &amp;#34;helvetica&amp;#34;&quot;&gt;ZE - 0&lt;/span&gt;" style="rounded=0;whiteSpace=wrap;html=1;" parent="1" vertex="1">
          <mxGeometry x="752" y="647" width="60" height="20" as="geometry" />
        </mxCell>
        <mxCell id="jthS4XlL0CTIznY_nn8V-148" value="&lt;span&gt;NO - 1&lt;/span&gt;" style="rounded=0;whiteSpace=wrap;html=1;" parent="1" vertex="1">
          <mxGeometry x="812" y="647" width="60" height="20" as="geometry" />
        </mxCell>
        <mxCell id="jthS4XlL0CTIznY_nn8V-149" value="&lt;span&gt;TE - 3&lt;/span&gt;" style="rounded=0;whiteSpace=wrap;html=1;" parent="1" vertex="1">
          <mxGeometry x="872" y="647" width="60" height="20" as="geometry" />
        </mxCell>
        <mxCell id="jthS4XlL0CTIznY_nn8V-150" value="&lt;span style=&quot;font-family: &amp;#34;helvetica&amp;#34;&quot;&gt;RU - 4&lt;/span&gt;" style="rounded=0;whiteSpace=wrap;html=1;" parent="1" vertex="1">
          <mxGeometry x="932" y="647" width="60" height="20" as="geometry" />
        </mxCell>
        <mxCell id="jthS4XlL0CTIznY_nn8V-153" value="" style="endArrow=classic;html=1;exitX=0.5;exitY=1;exitDx=0;exitDy=0;entryX=0.5;entryY=0;entryDx=0;entryDy=0;" parent="1" source="jthS4XlL0CTIznY_nn8V-64" edge="1" target="jthS4XlL0CTIznY_nn8V-65">
          <mxGeometry width="50" height="50" relative="1" as="geometry">
            <mxPoint x="510" y="440" as="sourcePoint" />
            <mxPoint x="527" y="480" as="targetPoint" />
          </mxGeometry>
        </mxCell>
        <mxCell id="jthS4XlL0CTIznY_nn8V-156" value="" style="endArrow=classic;html=1;exitX=0.5;exitY=1;exitDx=0;exitDy=0;entryX=0.5;entryY=0;entryDx=0;entryDy=0;" parent="1" edge="1" target="jthS4XlL0CTIznY_nn8V-64">
          <mxGeometry width="50" height="50" relative="1" as="geometry">
            <mxPoint x="526.5" y="327" as="sourcePoint" />
            <mxPoint x="526.5" y="390" as="targetPoint" />
          </mxGeometry>
        </mxCell>
        <mxCell id="on85RgWueq4QIF6lN6mk-1" value="" style="endArrow=classic;html=1;rounded=0;exitX=0.5;exitY=1;exitDx=0;exitDy=0;entryX=0.5;entryY=0;entryDx=0;entryDy=0;" edge="1" parent="1" source="jthS4XlL0CTIznY_nn8V-48" target="jthS4XlL0CTIznY_nn8V-53">
          <mxGeometry width="50" height="50" relative="1" as="geometry">
            <mxPoint x="380" y="440" as="sourcePoint" />
            <mxPoint x="430" y="390" as="targetPoint" />
          </mxGeometry>
        </mxCell>
        <mxCell id="on85RgWueq4QIF6lN6mk-2" value="" style="endArrow=classic;html=1;rounded=0;exitX=0.5;exitY=1;exitDx=0;exitDy=0;entryX=0.75;entryY=0;entryDx=0;entryDy=0;" edge="1" parent="1" source="jthS4XlL0CTIznY_nn8V-65" target="jthS4XlL0CTIznY_nn8V-67">
          <mxGeometry width="50" height="50" relative="1" as="geometry">
            <mxPoint x="380" y="440" as="sourcePoint" />
            <mxPoint x="470" y="550" as="targetPoint" />
          </mxGeometry>
        </mxCell>
        <mxCell id="on85RgWueq4QIF6lN6mk-3" value="" style="endArrow=classic;html=1;rounded=0;exitX=0.5;exitY=1;exitDx=0;exitDy=0;entryX=0.75;entryY=0;entryDx=0;entryDy=0;" edge="1" parent="1" source="jthS4XlL0CTIznY_nn8V-67" target="jthS4XlL0CTIznY_nn8V-73">
          <mxGeometry width="50" height="50" relative="1" as="geometry">
            <mxPoint x="380" y="440" as="sourcePoint" />
            <mxPoint x="430" y="390" as="targetPoint" />
          </mxGeometry>
        </mxCell>
        <mxCell id="on85RgWueq4QIF6lN6mk-5" value="" style="endArrow=classic;html=1;rounded=0;entryX=0.5;entryY=0;entryDx=0;entryDy=0;" edge="1" parent="1" target="jthS4XlL0CTIznY_nn8V-51">
          <mxGeometry width="50" height="50" relative="1" as="geometry">
            <mxPoint x="387" y="250" as="sourcePoint" />
            <mxPoint x="380" y="320" as="targetPoint" />
          </mxGeometry>
        </mxCell>
        <mxCell id="on85RgWueq4QIF6lN6mk-6" value="" style="endArrow=none;dashed=1;html=1;dashPattern=1 3;strokeWidth=2;rounded=0;" edge="1" parent="1">
          <mxGeometry width="50" height="50" relative="1" as="geometry">
            <mxPoint x="478" y="201" as="sourcePoint" />
            <mxPoint x="478" y="271" as="targetPoint" />
          </mxGeometry>
        </mxCell>
        <mxCell id="on85RgWueq4QIF6lN6mk-7" value="" style="endArrow=classic;html=1;rounded=0;exitX=0.5;exitY=1;exitDx=0;exitDy=0;entryX=0.5;entryY=0;entryDx=0;entryDy=0;" edge="1" parent="1" source="jthS4XlL0CTIznY_nn8V-51" target="jthS4XlL0CTIznY_nn8V-58">
          <mxGeometry width="50" height="50" relative="1" as="geometry">
            <mxPoint x="330" y="430" as="sourcePoint" />
            <mxPoint x="380" y="380" as="targetPoint" />
          </mxGeometry>
        </mxCell>
        <mxCell id="on85RgWueq4QIF6lN6mk-8" value="" style="endArrow=classic;html=1;rounded=0;exitX=0.5;exitY=1;exitDx=0;exitDy=0;entryX=0.5;entryY=0;entryDx=0;entryDy=0;" edge="1" parent="1" source="jthS4XlL0CTIznY_nn8V-52" target="jthS4XlL0CTIznY_nn8V-59">
          <mxGeometry width="50" height="50" relative="1" as="geometry">
            <mxPoint x="330" y="430" as="sourcePoint" />
            <mxPoint x="380" y="380" as="targetPoint" />
          </mxGeometry>
        </mxCell>
        <mxCell id="on85RgWueq4QIF6lN6mk-9" value="" style="endArrow=classic;html=1;rounded=0;exitX=0.5;exitY=1;exitDx=0;exitDy=0;entryX=0.5;entryY=0;entryDx=0;entryDy=0;" edge="1" parent="1" source="jthS4XlL0CTIznY_nn8V-58" target="jthS4XlL0CTIznY_nn8V-62">
          <mxGeometry width="50" height="50" relative="1" as="geometry">
            <mxPoint x="330" y="430" as="sourcePoint" />
            <mxPoint x="380" y="380" as="targetPoint" />
          </mxGeometry>
        </mxCell>
        <mxCell id="on85RgWueq4QIF6lN6mk-10" value="" style="endArrow=classic;html=1;rounded=0;exitX=0.5;exitY=1;exitDx=0;exitDy=0;entryX=0.5;entryY=0;entryDx=0;entryDy=0;" edge="1" parent="1" source="jthS4XlL0CTIznY_nn8V-59" target="jthS4XlL0CTIznY_nn8V-63">
          <mxGeometry width="50" height="50" relative="1" as="geometry">
            <mxPoint x="330" y="430" as="sourcePoint" />
            <mxPoint x="380" y="380" as="targetPoint" />
          </mxGeometry>
        </mxCell>
        <mxCell id="on85RgWueq4QIF6lN6mk-11" value="" style="endArrow=classic;html=1;rounded=0;exitX=0.5;exitY=1;exitDx=0;exitDy=0;entryX=0.25;entryY=0;entryDx=0;entryDy=0;" edge="1" parent="1" source="jthS4XlL0CTIznY_nn8V-62" target="jthS4XlL0CTIznY_nn8V-67">
          <mxGeometry width="50" height="50" relative="1" as="geometry">
            <mxPoint x="330" y="530" as="sourcePoint" />
            <mxPoint x="380" y="480" as="targetPoint" />
          </mxGeometry>
        </mxCell>
        <mxCell id="on85RgWueq4QIF6lN6mk-12" value="" style="endArrow=classic;html=1;rounded=0;entryX=0.5;entryY=0;entryDx=0;entryDy=0;exitX=0.5;exitY=1;exitDx=0;exitDy=0;" edge="1" parent="1" source="jthS4XlL0CTIznY_nn8V-44" target="jthS4XlL0CTIznY_nn8V-49">
          <mxGeometry width="50" height="50" relative="1" as="geometry">
            <mxPoint x="190" y="400" as="sourcePoint" />
            <mxPoint x="240" y="350" as="targetPoint" />
          </mxGeometry>
        </mxCell>
        <mxCell id="on85RgWueq4QIF6lN6mk-13" value="" style="endArrow=classic;html=1;rounded=0;entryX=0.5;entryY=0;entryDx=0;entryDy=0;exitX=0.371;exitY=0.987;exitDx=0;exitDy=0;exitPerimeter=0;" edge="1" parent="1" source="jthS4XlL0CTIznY_nn8V-45" target="jthS4XlL0CTIznY_nn8V-50">
          <mxGeometry width="50" height="50" relative="1" as="geometry">
            <mxPoint x="210" y="250" as="sourcePoint" />
            <mxPoint x="127" y="307" as="targetPoint" />
          </mxGeometry>
        </mxCell>
        <mxCell id="on85RgWueq4QIF6lN6mk-15" value="" style="endArrow=classic;html=1;rounded=0;exitX=0.5;exitY=1;exitDx=0;exitDy=0;entryX=0.5;entryY=0;entryDx=0;entryDy=0;" edge="1" parent="1" source="jthS4XlL0CTIznY_nn8V-50" target="jthS4XlL0CTIznY_nn8V-57">
          <mxGeometry width="50" height="50" relative="1" as="geometry">
            <mxPoint x="190" y="400" as="sourcePoint" />
            <mxPoint x="240" y="350" as="targetPoint" />
          </mxGeometry>
        </mxCell>
        <mxCell id="on85RgWueq4QIF6lN6mk-16" value="" style="endArrow=classic;html=1;rounded=0;exitX=0.5;exitY=1;exitDx=0;exitDy=0;entryX=0.5;entryY=0;entryDx=0;entryDy=0;" edge="1" parent="1">
          <mxGeometry width="50" height="50" relative="1" as="geometry">
            <mxPoint x="126.5" y="327" as="sourcePoint" />
            <mxPoint x="126.5" y="397" as="targetPoint" />
          </mxGeometry>
        </mxCell>
        <mxCell id="on85RgWueq4QIF6lN6mk-17" value="" style="endArrow=classic;html=1;rounded=0;exitX=0.5;exitY=1;exitDx=0;exitDy=0;entryX=0.5;entryY=0;entryDx=0;entryDy=0;" edge="1" parent="1" source="jthS4XlL0CTIznY_nn8V-56">
          <mxGeometry width="50" height="50" relative="1" as="geometry">
            <mxPoint x="146.5" y="417" as="sourcePoint" />
            <mxPoint x="146.5" y="487" as="targetPoint" />
          </mxGeometry>
        </mxCell>
        <mxCell id="on85RgWueq4QIF6lN6mk-18" value="" style="endArrow=classic;html=1;rounded=0;exitX=0.5;exitY=1;exitDx=0;exitDy=0;entryX=0.25;entryY=0;entryDx=0;entryDy=0;" edge="1" parent="1" source="jthS4XlL0CTIznY_nn8V-57" target="jthS4XlL0CTIznY_nn8V-61">
          <mxGeometry width="50" height="50" relative="1" as="geometry">
            <mxPoint x="237" y="357" as="sourcePoint" />
            <mxPoint x="237" y="427" as="targetPoint" />
          </mxGeometry>
        </mxCell>
        <mxCell id="on85RgWueq4QIF6lN6mk-19" value="" style="endArrow=classic;html=1;rounded=0;exitX=1;exitY=1;exitDx=0;exitDy=0;entryX=0;entryY=0;entryDx=0;entryDy=0;" edge="1" parent="1" source="jthS4XlL0CTIznY_nn8V-60" target="jthS4XlL0CTIznY_nn8V-70">
          <mxGeometry width="50" height="50" relative="1" as="geometry">
            <mxPoint x="190" y="400" as="sourcePoint" />
            <mxPoint x="240" y="350" as="targetPoint" />
          </mxGeometry>
        </mxCell>
        <mxCell id="on85RgWueq4QIF6lN6mk-20" value="" style="endArrow=classic;html=1;rounded=0;exitX=0;exitY=1;exitDx=0;exitDy=0;entryX=0.25;entryY=0;entryDx=0;entryDy=0;" edge="1" parent="1" source="jthS4XlL0CTIznY_nn8V-70" target="jthS4XlL0CTIznY_nn8V-73">
          <mxGeometry width="50" height="50" relative="1" as="geometry">
            <mxPoint x="247" y="367" as="sourcePoint" />
            <mxPoint x="247" y="437" as="targetPoint" />
          </mxGeometry>
        </mxCell>
        <mxCell id="on85RgWueq4QIF6lN6mk-21" value="" style="endArrow=none;dashed=1;html=1;dashPattern=1 3;strokeWidth=2;rounded=0;" edge="1" parent="1">
          <mxGeometry width="50" height="50" relative="1" as="geometry">
            <mxPoint x="345" y="125" as="sourcePoint" />
            <mxPoint x="345" y="195" as="targetPoint" />
          </mxGeometry>
        </mxCell>
        <mxCell id="on85RgWueq4QIF6lN6mk-22" value="" style="endArrow=classic;html=1;rounded=0;entryX=0;entryY=0;entryDx=0;entryDy=0;exitX=1;exitY=1;exitDx=0;exitDy=0;" edge="1" parent="1" source="jthS4XlL0CTIznY_nn8V-32" target="jthS4XlL0CTIznY_nn8V-45">
          <mxGeometry width="50" height="50" relative="1" as="geometry">
            <mxPoint x="242" y="220" as="sourcePoint" />
            <mxPoint x="292" y="170" as="targetPoint" />
          </mxGeometry>
        </mxCell>
        <mxCell id="on85RgWueq4QIF6lN6mk-23" value="" style="endArrow=classic;html=1;rounded=0;entryX=0.25;entryY=0;entryDx=0;entryDy=0;exitX=0.5;exitY=1;exitDx=0;exitDy=0;" edge="1" parent="1" source="jthS4XlL0CTIznY_nn8V-35" target="jthS4XlL0CTIznY_nn8V-47">
          <mxGeometry width="50" height="50" relative="1" as="geometry">
            <mxPoint x="330" y="270" as="sourcePoint" />
            <mxPoint x="380" y="220" as="targetPoint" />
          </mxGeometry>
        </mxCell>
        <mxCell id="on85RgWueq4QIF6lN6mk-24" value="" style="endArrow=classic;html=1;rounded=0;exitX=0.5;exitY=1;exitDx=0;exitDy=0;entryX=0.5;entryY=0;entryDx=0;entryDy=0;" edge="1" parent="1" source="jthS4XlL0CTIznY_nn8V-21" target="jthS4XlL0CTIznY_nn8V-34">
          <mxGeometry width="50" height="50" relative="1" as="geometry">
            <mxPoint x="390" y="110" as="sourcePoint" />
            <mxPoint x="440" y="60" as="targetPoint" />
          </mxGeometry>
        </mxCell>
        <mxCell id="on85RgWueq4QIF6lN6mk-25" value="" style="endArrow=none;dashed=1;html=1;dashPattern=1 3;strokeWidth=2;rounded=0;" edge="1" parent="1">
          <mxGeometry width="50" height="50" relative="1" as="geometry">
            <mxPoint x="585" y="41" as="sourcePoint" />
            <mxPoint x="585" y="121" as="targetPoint" />
          </mxGeometry>
        </mxCell>
        <mxCell id="on85RgWueq4QIF6lN6mk-28" value="" style="endArrow=classic;html=1;rounded=0;exitX=0.5;exitY=1;exitDx=0;exitDy=0;entryX=0.5;entryY=0;entryDx=0;entryDy=0;" edge="1" parent="1" source="jthS4XlL0CTIznY_nn8V-26" target="jthS4XlL0CTIznY_nn8V-41">
          <mxGeometry width="50" height="50" relative="1" as="geometry">
            <mxPoint x="750" y="420" as="sourcePoint" />
            <mxPoint x="800" y="370" as="targetPoint" />
          </mxGeometry>
        </mxCell>
        <mxCell id="on85RgWueq4QIF6lN6mk-29" value="" style="endArrow=none;dashed=1;html=1;dashPattern=1 3;strokeWidth=2;rounded=0;" edge="1" parent="1">
          <mxGeometry width="50" height="50" relative="1" as="geometry">
            <mxPoint x="750" y="131" as="sourcePoint" />
            <mxPoint x="750" y="190.9999999999999" as="targetPoint" />
          </mxGeometry>
        </mxCell>
        <mxCell id="on85RgWueq4QIF6lN6mk-30" value="" style="endArrow=classic;html=1;rounded=0;entryX=0;entryY=0;entryDx=0;entryDy=0;exitX=1;exitY=1;exitDx=0;exitDy=0;" edge="1" parent="1" source="jthS4XlL0CTIznY_nn8V-39" target="jthS4XlL0CTIznY_nn8V-122">
          <mxGeometry width="50" height="50" relative="1" as="geometry">
            <mxPoint x="750" y="420" as="sourcePoint" />
            <mxPoint x="800" y="370" as="targetPoint" />
          </mxGeometry>
        </mxCell>
        <mxCell id="on85RgWueq4QIF6lN6mk-31" value="" style="endArrow=classic;html=1;rounded=0;entryX=0.5;entryY=0;entryDx=0;entryDy=0;exitX=0.5;exitY=1;exitDx=0;exitDy=0;" edge="1" parent="1" source="jthS4XlL0CTIznY_nn8V-42" target="jthS4XlL0CTIznY_nn8V-124">
          <mxGeometry width="50" height="50" relative="1" as="geometry">
            <mxPoint x="750" y="420" as="sourcePoint" />
            <mxPoint x="800" y="370" as="targetPoint" />
          </mxGeometry>
        </mxCell>
        <mxCell id="on85RgWueq4QIF6lN6mk-32" value="" style="endArrow=classic;html=1;rounded=0;entryX=0.5;entryY=0;entryDx=0;entryDy=0;exitX=0.5;exitY=1;exitDx=0;exitDy=0;" edge="1" parent="1" source="jthS4XlL0CTIznY_nn8V-121" target="jthS4XlL0CTIznY_nn8V-126">
          <mxGeometry width="50" height="50" relative="1" as="geometry">
            <mxPoint x="760" y="490" as="sourcePoint" />
            <mxPoint x="800" y="400" as="targetPoint" />
          </mxGeometry>
        </mxCell>
        <mxCell id="on85RgWueq4QIF6lN6mk-33" value="" style="endArrow=classic;html=1;rounded=0;entryX=0.5;entryY=0;entryDx=0;entryDy=0;exitX=0.5;exitY=1;exitDx=0;exitDy=0;" edge="1" parent="1" source="jthS4XlL0CTIznY_nn8V-122" target="jthS4XlL0CTIznY_nn8V-127">
          <mxGeometry width="50" height="50" relative="1" as="geometry">
            <mxPoint x="672" y="257" as="sourcePoint" />
            <mxPoint x="652" y="317" as="targetPoint" />
          </mxGeometry>
        </mxCell>
        <mxCell id="on85RgWueq4QIF6lN6mk-34" value="" style="endArrow=classic;html=1;exitX=0.5;exitY=1;exitDx=0;exitDy=0;entryX=0.5;entryY=0;entryDx=0;entryDy=0;" edge="1" parent="1">
          <mxGeometry width="50" height="50" relative="1" as="geometry">
            <mxPoint x="641.5" y="328" as="sourcePoint" />
            <mxPoint x="642" y="398" as="targetPoint" />
          </mxGeometry>
        </mxCell>
        <mxCell id="on85RgWueq4QIF6lN6mk-35" value="" style="endArrow=classic;html=1;exitX=0.5;exitY=1;exitDx=0;exitDy=0;entryX=0.5;entryY=0;entryDx=0;entryDy=0;" edge="1" parent="1">
          <mxGeometry width="50" height="50" relative="1" as="geometry">
            <mxPoint x="721.5" y="328" as="sourcePoint" />
            <mxPoint x="722" y="398" as="targetPoint" />
          </mxGeometry>
        </mxCell>
        <mxCell id="on85RgWueq4QIF6lN6mk-36" value="" style="endArrow=classic;html=1;entryX=0.5;entryY=0;entryDx=0;entryDy=0;" edge="1" parent="1" target="jthS4XlL0CTIznY_nn8V-135">
          <mxGeometry width="50" height="50" relative="1" as="geometry">
            <mxPoint x="640" y="420" as="sourcePoint" />
            <mxPoint x="652" y="490" as="targetPoint" />
          </mxGeometry>
        </mxCell>
        <mxCell id="on85RgWueq4QIF6lN6mk-37" value="" style="endArrow=classic;html=1;exitX=0.5;exitY=1;exitDx=0;exitDy=0;entryX=0.5;entryY=0;entryDx=0;entryDy=0;" edge="1" parent="1" source="jthS4XlL0CTIznY_nn8V-132" target="jthS4XlL0CTIznY_nn8V-136">
          <mxGeometry width="50" height="50" relative="1" as="geometry">
            <mxPoint x="566.5" y="367" as="sourcePoint" />
            <mxPoint x="567" y="437" as="targetPoint" />
          </mxGeometry>
        </mxCell>
        <mxCell id="on85RgWueq4QIF6lN6mk-38" value="" style="endArrow=classic;html=1;exitX=0.5;exitY=1;exitDx=0;exitDy=0;entryX=0.5;entryY=0;entryDx=0;entryDy=0;" edge="1" parent="1">
          <mxGeometry width="50" height="50" relative="1" as="geometry">
            <mxPoint x="692" y="487" as="sourcePoint" />
            <mxPoint x="692.5" y="557" as="targetPoint" />
          </mxGeometry>
        </mxCell>
        <mxCell id="on85RgWueq4QIF6lN6mk-39" value="" style="endArrow=classic;html=1;rounded=0;entryX=0;entryY=0;entryDx=0;entryDy=0;exitX=1;exitY=1;exitDx=0;exitDy=0;" edge="1" parent="1" source="jthS4XlL0CTIznY_nn8V-144" target="jthS4XlL0CTIznY_nn8V-147">
          <mxGeometry width="50" height="50" relative="1" as="geometry">
            <mxPoint x="750" y="490" as="sourcePoint" />
            <mxPoint x="800" y="440" as="targetPoint" />
          </mxGeometry>
        </mxCell>
        <mxCell id="on85RgWueq4QIF6lN6mk-40" value="" style="endArrow=classic;html=1;rounded=0;entryX=1;entryY=0;entryDx=0;entryDy=0;exitX=1;exitY=1;exitDx=0;exitDy=0;" edge="1" parent="1" source="jthS4XlL0CTIznY_nn8V-123" target="jthS4XlL0CTIznY_nn8V-128">
          <mxGeometry width="50" height="50" relative="1" as="geometry">
            <mxPoint x="750" y="490" as="sourcePoint" />
            <mxPoint x="800" y="440" as="targetPoint" />
          </mxGeometry>
        </mxCell>
        <mxCell id="on85RgWueq4QIF6lN6mk-41" value="" style="endArrow=classic;html=1;rounded=0;entryX=0.5;entryY=0;entryDx=0;entryDy=0;exitX=0.5;exitY=1;exitDx=0;exitDy=0;" edge="1" parent="1" source="jthS4XlL0CTIznY_nn8V-128" target="jthS4XlL0CTIznY_nn8V-133">
          <mxGeometry width="50" height="50" relative="1" as="geometry">
            <mxPoint x="750" y="490" as="sourcePoint" />
            <mxPoint x="800" y="440" as="targetPoint" />
          </mxGeometry>
        </mxCell>
        <mxCell id="on85RgWueq4QIF6lN6mk-42" value="" style="endArrow=classic;html=1;exitX=0.5;exitY=1;exitDx=0;exitDy=0;entryX=0.5;entryY=0;entryDx=0;entryDy=0;" edge="1" parent="1" source="jthS4XlL0CTIznY_nn8V-129" target="jthS4XlL0CTIznY_nn8V-134">
          <mxGeometry width="50" height="50" relative="1" as="geometry">
            <mxPoint x="586.5" y="387" as="sourcePoint" />
            <mxPoint x="587" y="457" as="targetPoint" />
          </mxGeometry>
        </mxCell>
        <mxCell id="on85RgWueq4QIF6lN6mk-43" value="" style="endArrow=classic;html=1;rounded=0;entryX=0.5;entryY=0;entryDx=0;entryDy=0;exitX=0.5;exitY=1;exitDx=0;exitDy=0;" edge="1" parent="1" source="jthS4XlL0CTIznY_nn8V-133" target="jthS4XlL0CTIznY_nn8V-137">
          <mxGeometry width="50" height="50" relative="1" as="geometry">
            <mxPoint x="892" y="337" as="sourcePoint" />
            <mxPoint x="882" y="407" as="targetPoint" />
          </mxGeometry>
        </mxCell>
        <mxCell id="on85RgWueq4QIF6lN6mk-44" value="" style="endArrow=classic;html=1;rounded=0;entryX=0.5;entryY=0;entryDx=0;entryDy=0;exitX=0.5;exitY=1;exitDx=0;exitDy=0;" edge="1" parent="1" source="jthS4XlL0CTIznY_nn8V-134" target="jthS4XlL0CTIznY_nn8V-138">
          <mxGeometry width="50" height="50" relative="1" as="geometry">
            <mxPoint x="902" y="347" as="sourcePoint" />
            <mxPoint x="892" y="417" as="targetPoint" />
          </mxGeometry>
        </mxCell>
        <mxCell id="on85RgWueq4QIF6lN6mk-45" value="" style="endArrow=classic;html=1;rounded=0;entryX=0;entryY=0;entryDx=0;entryDy=0;exitX=0;exitY=1;exitDx=0;exitDy=0;" edge="1" parent="1" source="jthS4XlL0CTIznY_nn8V-138" target="jthS4XlL0CTIznY_nn8V-142">
          <mxGeometry width="50" height="50" relative="1" as="geometry">
            <mxPoint x="912" y="357" as="sourcePoint" />
            <mxPoint x="902" y="427" as="targetPoint" />
          </mxGeometry>
        </mxCell>
        <mxCell id="on85RgWueq4QIF6lN6mk-46" value="" style="endArrow=classic;html=1;rounded=0;entryX=0.5;entryY=0;entryDx=0;entryDy=0;exitX=0.5;exitY=1;exitDx=0;exitDy=0;" edge="1" parent="1" source="jthS4XlL0CTIznY_nn8V-125" target="jthS4XlL0CTIznY_nn8V-130">
          <mxGeometry width="50" height="50" relative="1" as="geometry">
            <mxPoint x="922" y="367" as="sourcePoint" />
            <mxPoint x="912" y="437" as="targetPoint" />
          </mxGeometry>
        </mxCell>
        <mxCell id="on85RgWueq4QIF6lN6mk-47" value="" style="endArrow=classic;html=1;exitX=0.5;exitY=1;exitDx=0;exitDy=0;entryX=0.5;entryY=0;entryDx=0;entryDy=0;" edge="1" parent="1">
          <mxGeometry width="50" height="50" relative="1" as="geometry">
            <mxPoint x="1041.29" y="327" as="sourcePoint" />
            <mxPoint x="1041.79" y="397" as="targetPoint" />
          </mxGeometry>
        </mxCell>
        <mxCell id="on85RgWueq4QIF6lN6mk-48" value="" style="endArrow=classic;html=1;exitX=0.5;exitY=1;exitDx=0;exitDy=0;entryX=0.5;entryY=0;entryDx=0;entryDy=0;" edge="1" parent="1">
          <mxGeometry width="50" height="50" relative="1" as="geometry">
            <mxPoint x="1041.29" y="417" as="sourcePoint" />
            <mxPoint x="1041.79" y="487" as="targetPoint" />
          </mxGeometry>
        </mxCell>
        <mxCell id="on85RgWueq4QIF6lN6mk-49" value="" style="endArrow=classic;html=1;exitX=0.5;exitY=1;exitDx=0;exitDy=0;entryX=1;entryY=0;entryDx=0;entryDy=0;" edge="1" parent="1" source="jthS4XlL0CTIznY_nn8V-140" target="jthS4XlL0CTIznY_nn8V-142">
          <mxGeometry width="50" height="50" relative="1" as="geometry">
            <mxPoint x="751.5" y="358" as="sourcePoint" />
            <mxPoint x="752" y="428" as="targetPoint" />
          </mxGeometry>
        </mxCell>
        <mxCell id="on85RgWueq4QIF6lN6mk-50" value="" style="endArrow=classic;html=1;exitX=0.5;exitY=1;exitDx=0;exitDy=0;entryX=1;entryY=0;entryDx=0;entryDy=0;" edge="1" parent="1" source="jthS4XlL0CTIznY_nn8V-142" target="jthS4XlL0CTIznY_nn8V-148">
          <mxGeometry width="50" height="50" relative="1" as="geometry">
            <mxPoint x="761.5" y="368" as="sourcePoint" />
            <mxPoint x="762" y="438" as="targetPoint" />
          </mxGeometry>
        </mxCell>
        <mxCell id="on85RgWueq4QIF6lN6mk-51" value="" style="endArrow=none;dashed=1;html=1;dashPattern=1 3;strokeWidth=2;rounded=0;" edge="1" parent="1">
          <mxGeometry width="50" height="50" relative="1" as="geometry">
            <mxPoint x="992" y="207" as="sourcePoint" />
            <mxPoint x="992" y="267" as="targetPoint" />
          </mxGeometry>
        </mxCell>
        <mxCell id="on85RgWueq4QIF6lN6mk-52" value="" style="endArrow=classic;html=1;rounded=0;entryX=0;entryY=0;entryDx=0;entryDy=0;exitX=0.5;exitY=1;exitDx=0;exitDy=0;" edge="1" parent="1" source="jthS4XlL0CTIznY_nn8V-148" target="jthS4XlL0CTIznY_nn8V-108">
          <mxGeometry width="50" height="50" relative="1" as="geometry">
            <mxPoint x="530" y="750" as="sourcePoint" />
            <mxPoint x="580" y="700" as="targetPoint" />
          </mxGeometry>
        </mxCell>
        <mxCell id="on85RgWueq4QIF6lN6mk-54" value="" style="endArrow=classic;html=1;rounded=0;entryX=0;entryY=0;entryDx=0;entryDy=0;exitX=0.5;exitY=1;exitDx=0;exitDy=0;" edge="1" parent="1" source="jthS4XlL0CTIznY_nn8V-73" target="jthS4XlL0CTIznY_nn8V-104">
          <mxGeometry width="50" height="50" relative="1" as="geometry">
            <mxPoint x="852" y="677" as="sourcePoint" />
            <mxPoint x="715" y="760" as="targetPoint" />
          </mxGeometry>
        </mxCell>
      </root>
    </mxGraphModel>
  </diagram>
</mxfile>
